<svg xmlns="http://www.w3.org/2000/svg" viewBox="0 0 360 230" width="360" height="230">
  <rect width="360" height="230" fill="#0e1216"></rect>
  <path d="M 86.50 82.00 L 87.46 82.00 L 88.43 82.00 L 89.39 82.00 L 90.35 82.00 L 91.31 82.00 L 92.27 81.99 L 93.24 81.99 L 94.20 81.98 L 95.16 81.97 L 96.13 81.96 L 97.09 81.93 L 98.05 81.89 L 99.01 81.83 L 99.98 81.75 L 100.94 81.63 L 101.90 81.47 L 102.86 81.23 L 103.82 80.92 L 104.79 80.50 L 105.75 79.94 L 106.71 79.23 L 107.67 78.32 L 108.64 77.19 L 109.60 75.80 L 110.56 74.14 L 111.52 72.19 L 112.49 69.94 L 113.45 67.39 L 114.41 64.58 L 115.38 61.54 L 116.34 58.33 L 117.30 55.04 L 118.26 51.76 L 119.23 48.60 L 120.19 45.66 L 121.15 43.07 L 122.11 40.93 L 123.08 39.33 L 124.04 38.34 L 125.00 38.00 L 125.96 38.34 L 126.92 39.33 L 127.89 40.93 L 128.85 43.07 L 129.81 45.66 L 130.77 48.60 L 131.74 51.76 L 132.70 55.04 L 133.66 58.33 L 134.63 61.54 L 135.59 64.58 L 136.55 67.39 L 137.51 69.94 L 138.48 72.19 L 139.44 74.14 L 140.40 75.80 L 141.36 77.19 L 142.33 78.32 L 143.29 79.23 L 144.25 79.94 L 145.21 80.50 L 146.17 80.92 L 147.14 81.23 L 148.10 81.47 L 149.06 81.63 L 150.03 81.75 L 150.99 81.83 L 151.95 81.89 L 152.91 81.93 L 153.88 81.96 L 154.84 81.97 L 155.80 81.98 L 156.76 81.99 L 157.72 81.99 L 158.69 82.00 L 159.65 82.00 L 160.61 82.00 L 161.58 82.00 L 162.54 82.00 L 163.50 82.00 L 163.50 82.00 L 86.50 82.00 Z" fill="#f6f4ef" fill-opacity="0.24" stroke="#f6f4ef" stroke-width="1.2" stroke-linejoin="round"></path>
  <path d="M 139.50 82.00 L 140.64 82.00 L 141.78 82.00 L 142.91 82.00 L 144.05 82.00 L 145.19 81.99 L 146.33 81.99 L 147.46 81.99 L 148.60 81.98 L 149.74 81.96 L 150.88 81.94 L 152.01 81.90 L 153.15 81.85 L 154.29 81.77 L 155.42 81.66 L 156.56 81.50 L 157.70 81.27 L 158.84 80.95 L 159.97 80.52 L 161.11 79.95 L 162.25 79.19 L 163.39 78.22 L 164.53 76.98 L 165.66 75.44 L 166.80 73.55 L 167.94 71.28 L 169.08 68.62 L 170.21 65.55 L 171.35 62.08 L 172.49 58.24 L 173.63 54.10 L 174.76 49.73 L 175.90 45.24 L 177.04 40.77 L 178.17 36.45 L 179.31 32.45 L 180.45 28.92 L 181.59 26.00 L 182.72 23.81 L 183.86 22.46 L 185.00 22.00 L 186.14 22.46 L 187.28 23.81 L 188.41 26.00 L 189.55 28.92 L 190.69 32.45 L 191.83 36.45 L 192.96 40.77 L 194.10 45.24 L 195.24 49.73 L 196.38 54.10 L 197.51 58.24 L 198.65 62.08 L 199.79 65.55 L 200.92 68.62 L 202.06 71.28 L 203.20 73.55 L 204.34 75.44 L 205.47 76.98 L 206.61 78.22 L 207.75 79.19 L 208.89 79.95 L 210.03 80.52 L 211.16 80.95 L 212.30 81.27 L 213.44 81.50 L 214.57 81.66 L 215.71 81.77 L 216.85 81.85 L 217.99 81.90 L 219.13 81.94 L 220.26 81.96 L 221.40 81.98 L 222.54 81.99 L 223.68 81.99 L 224.81 81.99 L 225.95 82.00 L 227.09 82.00 L 228.22 82.00 L 229.36 82.00 L 230.50 82.00 L 230.50 82.00 L 139.50 82.00 Z" fill="#0083a0" fill-opacity="0.88" stroke="#0083a0" stroke-width="1.2" stroke-linejoin="round"></path>
  <line x1="79.00" y1="82.00" x2="281.00" y2="82.00" stroke="#f6f4ef" stroke-width="1.5"></line>
  <rect x="79.00" y="89.00" width="202" height="22" fill="#f6f4ef" fill-opacity="0.10" rx="3"></rect>
  <circle cx="119.00" cy="100.00" r="4.95" fill="#c84a2e" fill-opacity="0.92"></circle>
  <circle cx="179.00" cy="100.00" r="6.60" fill="#c84a2e" fill-opacity="0.92"></circle>
  <circle cx="195.00" cy="100.00" r="8.80" fill="#c84a2e" fill-opacity="0.92"></circle>
  <text x="180.00" y="168.00" text-anchor="middle" font-family="&#39;Space Grotesk&#39;, system-ui, sans-serif" font-weight="600" font-size="34" letter-spacing="-0.7" fill="#f6f4ef">
    <tspan>GL</tspan><tspan fill="#0083a0">prox</tspan><tspan>Scape</tspan>
  </text>
</svg>