<?xml version="1.0" encoding="utf-8"?>
<!-- Generator: Adobe Illustrator 25.0.0, SVG Export Plug-In . SVG Version: 6.00 Build 0)  -->
<svg version="1.1" id="Layer_1" xmlns="http://www.w3.org/2000/svg" xmlns:xlink="http://www.w3.org/1999/xlink" x="0px" y="0px"
	 viewBox="0 0 226.6 149.7" style="enable-background:new 0 0 226.6 149.7;" xml:space="preserve">
<style type="text/css">
	.st0{fill:#0E1216;}
	.st1{fill:#F6F4EF;fill-opacity:0.24;stroke:#F6F4EF;stroke-width:1.2;stroke-linejoin:round;}
	.st2{fill:#0083A0;fill-opacity:0.88;stroke:#0083A0;stroke-width:1.2;stroke-linejoin:round;}
	.st3{fill:none;stroke:#F6F4EF;stroke-width:1.5;}
	.st4{fill:#F6F4EF;fill-opacity:0.1;}
	.st5{fill:#C84A2E;fill-opacity:0.92;}
	.st6{fill:#F6F4EF;}
	.st7{font-family:'Helvetica-Bold';}
	.st8{font-size:34px;}
	.st9{fill:#0083A0;}
</style>
<rect class="st0" width="226.6" height="149.7"/>
<path class="st1" d="M18.1,64h1h1h1h1h1h1h1h1h1h1h1h1l1-0.1l1-0.1l1-0.1l1-0.2l1-0.2l1-0.3l1-0.4l1-0.6l1-0.7l1-0.9l1-1.1l1-1.4
	l1-1.7l1-1.9l1-2.2l1-2.6l1-2.8l1-3l1-3.2l1-3.3l1-3.3l1-3.2l1-2.9l1-2.6l1-2.1l1-1.6l1-1l1-0.3l1,0.3l1,1l1,1.6l1,2.1l1,2.6l1,2.9
	l1,3.2l1,3.3l1,3.3l1,3.2l1,3l1,2.8l1,2.6l1,2.2l1,1.9l1,1.7l1,1.4l1,1.1l1,0.9l1,0.7l1,0.6l1,0.4l1,0.3l1,0.2l1,0.2l1,0.1l1,0.1
	l1,0.1h1h1h1h1h1h1h1h1h1h1h1h1l0,0H18.1z"/>
<path class="st2" d="M71.1,64h1.1h1.1h1.1h1.1h1.1h1.1h1.1h1.1H81h1.1h1.1l1.1-0.1l1.1-0.1l1.1-0.1l1.1-0.2l1.1-0.2l1.1-0.3l1.1-0.4
	L92,62l1.1-0.8l1.1-1l1.1-1.2l1.1-1.5l1.1-1.9l1.1-2.3l1.1-2.7l1.1-3.1l1.1-3.5l1.1-3.8l1.1-4.1l1.1-4.4l1.1-4.5l1.1-4.5l1.1-4.3
	l1.1-4l1.1-3.5l1.1-2.9l1.1-2.2l1.1-1.4l1.1-0.5l1.1,0.5l1.1,1.4l1.1,2.2l1.1,2.9l1.1,3.5l1.1,4l1.1,4.3l1.1,4.5l1.1,4.5l1.1,4.4
	l1.1,4.1l1.1,3.8l1.1,3.5l1.1,3.1l1.1,2.7l1.1,2.3l1.1,1.9l1.1,1.5l1.1,1.2l1.1,1l1.1,0.8l1.1,0.6l1.1,0.4l1.1,0.3l1.1,0.2l1.1,0.2
	l1.1,0.1l1.1,0.1L147,64h1.1h1.1h1.1h1.1h1.1h1.1h1.1h1.1h1.1h1.1h1.1l0,0H71.1z"/>
<line class="st3" x1="10.6" y1="64" x2="212.6" y2="64"/>
<path class="st4" d="M13.6,71h196c1.7,0,3,1.3,3,3v16c0,1.7-1.3,3-3,3h-196c-1.7,0-3-1.3-3-3V74C10.6,72.3,11.9,71,13.6,71z"/>
<circle class="st5" cx="50.6" cy="82" r="4.9"/>
<circle class="st5" cx="110.6" cy="82" r="6.6"/>
<circle class="st5" cx="126.6" cy="82" r="8.8"/>
<text transform="matrix(1 0 0 1 4.846 133.9381)" class="st6 st7 st8">GL</text>
<text transform="matrix(1 0 0 1 50.6609 133.9381)" class="st9 st7 st8">prox</text>
<text transform="matrix(1 0 0 1 121.5386 133.9381)" class="st6 st7 st8">Scape</text>
</svg>
